<mxfile host="app.diagrams.net" modified="2023-04-14T15:11:56.386Z" agent="5.0 (X11; Ubuntu)" etag="aP-8QNCkR245hxc1-yys" version="20.8.11" type="github">
  <diagram name="Page-1" id="7sftsaREEKXduiQP2Yfs">
    <mxGraphModel dx="2784" dy="1102" grid="0" gridSize="10" guides="1" tooltips="1" connect="1" arrows="1" fold="1" page="0" pageScale="1" pageWidth="850" pageHeight="1100" math="0" shadow="0">
      <root>
        <mxCell id="0" />
        <mxCell id="1" parent="0" />
        <mxCell id="LSiRQm851fG1biD96qPc-80" value="&lt;font style=&quot;font-size: 20px;&quot;&gt;&amp;nbsp;&amp;nbsp;&amp;nbsp;&amp;nbsp;&amp;nbsp;&amp;nbsp;&amp;nbsp;&amp;nbsp;&amp;nbsp;&amp;nbsp;&amp;nbsp;&amp;nbsp;&amp;nbsp;&amp;nbsp;&amp;nbsp;&amp;nbsp;&amp;nbsp;&amp;nbsp;&amp;nbsp;&amp;nbsp;&amp;nbsp;&amp;nbsp;&amp;nbsp;&amp;nbsp;&amp;nbsp;&amp;nbsp;&amp;nbsp; ERC20PermitLight.sol&lt;/font&gt;" style="rounded=1;whiteSpace=wrap;html=1;fontSize=10;fillColor=#dae8fc;strokeColor=#6c8ebf;" vertex="1" parent="1">
          <mxGeometry x="-412" y="1075" width="484" height="39" as="geometry" />
        </mxCell>
        <mxCell id="LSiRQm851fG1biD96qPc-79" value="&lt;font style=&quot;font-size: 20px;&quot;&gt;&amp;nbsp;&amp;nbsp;&amp;nbsp;&amp;nbsp;&amp;nbsp;&amp;nbsp;&amp;nbsp;&amp;nbsp;&amp;nbsp;&amp;nbsp; ERC20.sol&lt;/font&gt;" style="rounded=1;whiteSpace=wrap;html=1;fontSize=10;fillColor=#dae8fc;strokeColor=#6c8ebf;" vertex="1" parent="1">
          <mxGeometry x="-415" y="1028" width="484" height="39" as="geometry" />
        </mxCell>
        <mxCell id="LSiRQm851fG1biD96qPc-78" value="&lt;font style=&quot;font-size: 20px;&quot;&gt;&amp;nbsp;&amp;nbsp;&amp;nbsp;&amp;nbsp;&amp;nbsp;&amp;nbsp;&amp;nbsp;&amp;nbsp;&amp;nbsp;&amp;nbsp;&amp;nbsp;&amp;nbsp;&amp;nbsp;&amp;nbsp;&amp;nbsp;&amp;nbsp;&amp;nbsp;&amp;nbsp;&amp;nbsp;&amp;nbsp;&amp;nbsp;&amp;nbsp;&amp;nbsp;&amp;nbsp;&amp;nbsp; StableCoinBridge.sol&lt;/font&gt;" style="rounded=1;whiteSpace=wrap;html=1;fontSize=10;fillColor=#dae8fc;strokeColor=#6c8ebf;" vertex="1" parent="1">
          <mxGeometry x="-418" y="904" width="487" height="115" as="geometry" />
        </mxCell>
        <mxCell id="LSiRQm851fG1biD96qPc-77" value="&lt;font style=&quot;font-size: 20px;&quot;&gt;&amp;nbsp;&amp;nbsp;&amp;nbsp;&amp;nbsp;&amp;nbsp;&amp;nbsp; Equity.sol&lt;/font&gt;" style="rounded=1;whiteSpace=wrap;html=1;fontSize=10;fillColor=#dae8fc;strokeColor=#6c8ebf;" vertex="1" parent="1">
          <mxGeometry x="-418" y="742" width="487" height="152" as="geometry" />
        </mxCell>
        <mxCell id="LSiRQm851fG1biD96qPc-76" value="&lt;font style=&quot;font-size: 20px;&quot;&gt;&amp;nbsp;&amp;nbsp;&amp;nbsp;&amp;nbsp;&amp;nbsp;&amp;nbsp;&amp;nbsp;&amp;nbsp;&amp;nbsp;&amp;nbsp;&amp;nbsp;&amp;nbsp;&amp;nbsp; FrankenCoin.sol&lt;/font&gt;" style="rounded=1;whiteSpace=wrap;html=1;fontSize=10;fillColor=#dae8fc;strokeColor=#6c8ebf;" vertex="1" parent="1">
          <mxGeometry x="-418" y="556" width="487" height="163" as="geometry" />
        </mxCell>
        <mxCell id="LSiRQm851fG1biD96qPc-63" value="&lt;div style=&quot;font-size: 10px;&quot;&gt;&lt;font style=&quot;font-size: 20px;&quot;&gt;&amp;nbsp;&amp;nbsp;&amp;nbsp;&amp;nbsp;&amp;nbsp;&amp;nbsp;&amp;nbsp;&amp;nbsp;&amp;nbsp;&amp;nbsp;&amp;nbsp;&amp;nbsp;&amp;nbsp;&amp;nbsp;&amp;nbsp;&amp;nbsp;&amp;nbsp;&amp;nbsp; PositionFactory.sol&lt;/font&gt;&lt;font style=&quot;font-size: 10px;&quot;&gt;&lt;font style=&quot;font-size: 10px;&quot;&gt;&lt;br&gt;&lt;/font&gt;&lt;/font&gt;&lt;/div&gt;" style="rounded=1;whiteSpace=wrap;html=1;fontSize=9;fillColor=#dae8fc;strokeColor=#6c8ebf;" vertex="1" parent="1">
          <mxGeometry x="-418" y="449" width="482" height="93" as="geometry" />
        </mxCell>
        <mxCell id="LSiRQm851fG1biD96qPc-62" value="&lt;div&gt;&lt;font style=&quot;font-size: 20px;&quot;&gt;&amp;nbsp;&amp;nbsp;&amp;nbsp;&amp;nbsp;&amp;nbsp;&amp;nbsp;&amp;nbsp;&amp;nbsp;&amp;nbsp;&amp;nbsp;&amp;nbsp;&amp;nbsp;&amp;nbsp;&amp;nbsp;&amp;nbsp;&amp;nbsp;&amp;nbsp;&amp;nbsp; Position.sol&lt;/font&gt;&lt;/div&gt;&lt;div style=&quot;font-size: 10px;&quot;&gt;&lt;font style=&quot;font-size: 10px;&quot;&gt;&amp;nbsp;&amp;nbsp;&amp;nbsp;&amp;nbsp;&amp;nbsp;&amp;nbsp;&amp;nbsp;&amp;nbsp;&amp;nbsp;&amp;nbsp;&amp;nbsp;&amp;nbsp;&amp;nbsp;&amp;nbsp;&amp;nbsp;&amp;nbsp;&amp;nbsp;&amp;nbsp;&amp;nbsp;&amp;nbsp;&amp;nbsp;&amp;nbsp;&amp;nbsp;&amp;nbsp;&amp;nbsp;&amp;nbsp;&amp;nbsp;&amp;nbsp;&amp;nbsp;&amp;nbsp;&amp;nbsp;&amp;nbsp;&amp;nbsp;&amp;nbsp;&amp;nbsp;&amp;nbsp;&amp;nbsp;&amp;nbsp;&amp;nbsp;&amp;nbsp;&amp;nbsp;&amp;nbsp;&amp;nbsp;&amp;nbsp;&amp;nbsp; * indicates the function has the owner mod&lt;font style=&quot;font-size: 10px;&quot;&gt;&lt;br&gt;&lt;/font&gt;&lt;/font&gt;&lt;/div&gt;" style="rounded=1;whiteSpace=wrap;html=1;fontSize=9;fillColor=#dae8fc;strokeColor=#6c8ebf;" vertex="1" parent="1">
          <mxGeometry x="-418" y="197" width="479" height="227" as="geometry" />
        </mxCell>
        <mxCell id="LSiRQm851fG1biD96qPc-61" value="&lt;font style=&quot;font-size: 20px;&quot;&gt;&amp;nbsp;&amp;nbsp;&amp;nbsp;&amp;nbsp;&amp;nbsp;&amp;nbsp;&amp;nbsp;&amp;nbsp;&amp;nbsp;&amp;nbsp;&amp;nbsp;&amp;nbsp;&amp;nbsp;&amp;nbsp;&amp;nbsp;&amp;nbsp;&amp;nbsp;&amp;nbsp; MintingHub.sol&lt;/font&gt;" style="rounded=1;whiteSpace=wrap;html=1;fontSize=9;fillColor=#dae8fc;strokeColor=#6c8ebf;" vertex="1" parent="1">
          <mxGeometry x="-418" y="-107" width="479" height="293" as="geometry" />
        </mxCell>
        <mxCell id="LSiRQm851fG1biD96qPc-5" value="&lt;div&gt;FrankenCoin UserPath: External &amp;amp; Public Functions &lt;br&gt;&lt;/div&gt;&lt;div&gt;(without limiting modifiers, excluding view &amp;amp; pure)&lt;/div&gt;" style="rounded=1;whiteSpace=wrap;html=1;" vertex="1" parent="1">
          <mxGeometry x="-198" y="-169" width="541" height="48" as="geometry" />
        </mxCell>
        <mxCell id="LSiRQm851fG1biD96qPc-10" value="openPosition" style="rounded=1;whiteSpace=wrap;html=1;fillColor=#ffe6cc;strokeColor=#d79b00;" vertex="1" parent="1">
          <mxGeometry x="-344" y="-97" width="117" height="21" as="geometry" />
        </mxCell>
        <mxCell id="LSiRQm851fG1biD96qPc-11" value="1" style="ellipse;whiteSpace=wrap;html=1;aspect=fixed;fillColor=#fff2cc;strokeColor=#d6b656;" vertex="1" parent="1">
          <mxGeometry x="-386" y="-101" width="29" height="29" as="geometry" />
        </mxCell>
        <mxCell id="LSiRQm851fG1biD96qPc-12" value="openPosition" style="rounded=1;whiteSpace=wrap;html=1;fillColor=#ffe6cc;strokeColor=#d79b00;" vertex="1" parent="1">
          <mxGeometry x="-344" y="-63" width="117" height="21" as="geometry" />
        </mxCell>
        <mxCell id="LSiRQm851fG1biD96qPc-13" value="2" style="ellipse;whiteSpace=wrap;html=1;aspect=fixed;fillColor=#fff2cc;strokeColor=#d6b656;" vertex="1" parent="1">
          <mxGeometry x="-386" y="-67" width="29" height="29" as="geometry" />
        </mxCell>
        <mxCell id="LSiRQm851fG1biD96qPc-14" value="clonePosition" style="rounded=1;whiteSpace=wrap;html=1;fillColor=#ffe6cc;strokeColor=#d79b00;" vertex="1" parent="1">
          <mxGeometry x="-344" y="-27" width="117" height="21" as="geometry" />
        </mxCell>
        <mxCell id="LSiRQm851fG1biD96qPc-15" value="3" style="ellipse;whiteSpace=wrap;html=1;aspect=fixed;fillColor=#fff2cc;strokeColor=#d6b656;" vertex="1" parent="1">
          <mxGeometry x="-386" y="-31" width="29" height="29" as="geometry" />
        </mxCell>
        <mxCell id="LSiRQm851fG1biD96qPc-16" value="launchChallenge" style="rounded=1;whiteSpace=wrap;html=1;fillColor=#ffe6cc;strokeColor=#d79b00;" vertex="1" parent="1">
          <mxGeometry x="-344" y="7" width="117" height="21" as="geometry" />
        </mxCell>
        <mxCell id="LSiRQm851fG1biD96qPc-17" value="4" style="ellipse;whiteSpace=wrap;html=1;aspect=fixed;fillColor=#fff2cc;strokeColor=#d6b656;" vertex="1" parent="1">
          <mxGeometry x="-386" y="3" width="29" height="29" as="geometry" />
        </mxCell>
        <mxCell id="LSiRQm851fG1biD96qPc-18" value="splitChallenge" style="rounded=1;whiteSpace=wrap;html=1;fillColor=#ffe6cc;strokeColor=#d79b00;" vertex="1" parent="1">
          <mxGeometry x="-344" y="44" width="117" height="21" as="geometry" />
        </mxCell>
        <mxCell id="LSiRQm851fG1biD96qPc-19" value="5" style="ellipse;whiteSpace=wrap;html=1;aspect=fixed;fillColor=#fff2cc;strokeColor=#d6b656;" vertex="1" parent="1">
          <mxGeometry x="-386" y="40" width="29" height="29" as="geometry" />
        </mxCell>
        <mxCell id="LSiRQm851fG1biD96qPc-20" value="bid" style="rounded=1;whiteSpace=wrap;html=1;fillColor=#ffe6cc;strokeColor=#d79b00;" vertex="1" parent="1">
          <mxGeometry x="-344" y="88" width="117" height="21" as="geometry" />
        </mxCell>
        <mxCell id="LSiRQm851fG1biD96qPc-21" value="6" style="ellipse;whiteSpace=wrap;html=1;aspect=fixed;fillColor=#fff2cc;strokeColor=#d6b656;" vertex="1" parent="1">
          <mxGeometry x="-386" y="84" width="29" height="29" as="geometry" />
        </mxCell>
        <mxCell id="LSiRQm851fG1biD96qPc-22" value="end" style="rounded=1;whiteSpace=wrap;html=1;fillColor=#ffe6cc;strokeColor=#d79b00;" vertex="1" parent="1">
          <mxGeometry x="-344" y="122" width="117" height="21" as="geometry" />
        </mxCell>
        <mxCell id="LSiRQm851fG1biD96qPc-23" value="7" style="ellipse;whiteSpace=wrap;html=1;aspect=fixed;fillColor=#fff2cc;strokeColor=#d6b656;" vertex="1" parent="1">
          <mxGeometry x="-386" y="118" width="29" height="29" as="geometry" />
        </mxCell>
        <mxCell id="LSiRQm851fG1biD96qPc-24" value="&lt;div&gt;&lt;font style=&quot;font-size: 9px;&quot;&gt;returnPostponedCollateral&lt;/font&gt;&lt;/div&gt;" style="rounded=1;whiteSpace=wrap;html=1;fillColor=#ffe6cc;strokeColor=#d79b00;" vertex="1" parent="1">
          <mxGeometry x="-344" y="158" width="117" height="21" as="geometry" />
        </mxCell>
        <mxCell id="LSiRQm851fG1biD96qPc-25" value="8" style="ellipse;whiteSpace=wrap;html=1;aspect=fixed;fillColor=#fff2cc;strokeColor=#d6b656;" vertex="1" parent="1">
          <mxGeometry x="-386" y="154" width="29" height="29" as="geometry" />
        </mxCell>
        <mxCell id="LSiRQm851fG1biD96qPc-26" value="withdraw*" style="rounded=1;whiteSpace=wrap;html=1;fillColor=#ffe6cc;strokeColor=#d79b00;" vertex="1" parent="1">
          <mxGeometry x="-344" y="216" width="117" height="21" as="geometry" />
        </mxCell>
        <mxCell id="LSiRQm851fG1biD96qPc-27" value="9" style="ellipse;whiteSpace=wrap;html=1;aspect=fixed;fillColor=#fff2cc;strokeColor=#d6b656;" vertex="1" parent="1">
          <mxGeometry x="-386" y="212" width="29" height="29" as="geometry" />
        </mxCell>
        <mxCell id="LSiRQm851fG1biD96qPc-28" value="deny" style="rounded=1;whiteSpace=wrap;html=1;fillColor=#ffe6cc;strokeColor=#d79b00;" vertex="1" parent="1">
          <mxGeometry x="-344" y="253" width="117" height="21" as="geometry" />
        </mxCell>
        <mxCell id="LSiRQm851fG1biD96qPc-29" value="10" style="ellipse;whiteSpace=wrap;html=1;aspect=fixed;fillColor=#fff2cc;strokeColor=#d6b656;" vertex="1" parent="1">
          <mxGeometry x="-386" y="249" width="29" height="29" as="geometry" />
        </mxCell>
        <mxCell id="LSiRQm851fG1biD96qPc-30" value="withdrawCollateral*" style="rounded=1;whiteSpace=wrap;html=1;fillColor=#ffe6cc;strokeColor=#d79b00;" vertex="1" parent="1">
          <mxGeometry x="-344" y="291" width="117" height="21" as="geometry" />
        </mxCell>
        <mxCell id="LSiRQm851fG1biD96qPc-31" value="11" style="ellipse;whiteSpace=wrap;html=1;aspect=fixed;fillColor=#fff2cc;strokeColor=#d6b656;" vertex="1" parent="1">
          <mxGeometry x="-386" y="287" width="29" height="29" as="geometry" />
        </mxCell>
        <mxCell id="LSiRQm851fG1biD96qPc-32" value="adjust*" style="rounded=1;whiteSpace=wrap;html=1;fillColor=#ffe6cc;strokeColor=#d79b00;" vertex="1" parent="1">
          <mxGeometry x="-344" y="325" width="117" height="21" as="geometry" />
        </mxCell>
        <mxCell id="LSiRQm851fG1biD96qPc-33" value="12" style="ellipse;whiteSpace=wrap;html=1;aspect=fixed;fillColor=#fff2cc;strokeColor=#d6b656;" vertex="1" parent="1">
          <mxGeometry x="-386" y="321" width="29" height="29" as="geometry" />
        </mxCell>
        <mxCell id="LSiRQm851fG1biD96qPc-34" value="mint" style="rounded=1;whiteSpace=wrap;html=1;fillColor=#ffe6cc;strokeColor=#d79b00;" vertex="1" parent="1">
          <mxGeometry x="-344" y="361" width="117" height="21" as="geometry" />
        </mxCell>
        <mxCell id="LSiRQm851fG1biD96qPc-35" value="13" style="ellipse;whiteSpace=wrap;html=1;aspect=fixed;fillColor=#fff2cc;strokeColor=#d6b656;" vertex="1" parent="1">
          <mxGeometry x="-386" y="357" width="29" height="29" as="geometry" />
        </mxCell>
        <mxCell id="LSiRQm851fG1biD96qPc-36" value="repay" style="rounded=1;whiteSpace=wrap;html=1;fillColor=#ffe6cc;strokeColor=#d79b00;" vertex="1" parent="1">
          <mxGeometry x="-344" y="395" width="117" height="21" as="geometry" />
        </mxCell>
        <mxCell id="LSiRQm851fG1biD96qPc-37" value="14" style="ellipse;whiteSpace=wrap;html=1;aspect=fixed;fillColor=#fff2cc;strokeColor=#d6b656;" vertex="1" parent="1">
          <mxGeometry x="-386" y="391" width="29" height="29" as="geometry" />
        </mxCell>
        <mxCell id="LSiRQm851fG1biD96qPc-38" value="createNewPosition" style="rounded=1;whiteSpace=wrap;html=1;fillColor=#ffe6cc;strokeColor=#d79b00;" vertex="1" parent="1">
          <mxGeometry x="-341" y="470" width="117" height="21" as="geometry" />
        </mxCell>
        <mxCell id="LSiRQm851fG1biD96qPc-39" value="15" style="ellipse;whiteSpace=wrap;html=1;aspect=fixed;fillColor=#fff2cc;strokeColor=#d6b656;" vertex="1" parent="1">
          <mxGeometry x="-383" y="466" width="29" height="29" as="geometry" />
        </mxCell>
        <mxCell id="LSiRQm851fG1biD96qPc-40" value="clonePosition" style="rounded=1;whiteSpace=wrap;html=1;fillColor=#ffe6cc;strokeColor=#d79b00;" vertex="1" parent="1">
          <mxGeometry x="-341" y="506" width="117" height="21" as="geometry" />
        </mxCell>
        <mxCell id="LSiRQm851fG1biD96qPc-41" value="16" style="ellipse;whiteSpace=wrap;html=1;aspect=fixed;fillColor=#fff2cc;strokeColor=#d6b656;" vertex="1" parent="1">
          <mxGeometry x="-383" y="502" width="29" height="29" as="geometry" />
        </mxCell>
        <mxCell id="LSiRQm851fG1biD96qPc-42" value="suggestMinter" style="rounded=1;whiteSpace=wrap;html=1;fillColor=#ffe6cc;strokeColor=#d79b00;" vertex="1" parent="1">
          <mxGeometry x="-341" y="578" width="117" height="21" as="geometry" />
        </mxCell>
        <mxCell id="LSiRQm851fG1biD96qPc-43" value="17" style="ellipse;whiteSpace=wrap;html=1;aspect=fixed;fillColor=#fff2cc;strokeColor=#d6b656;" vertex="1" parent="1">
          <mxGeometry x="-383" y="574" width="29" height="29" as="geometry" />
        </mxCell>
        <mxCell id="LSiRQm851fG1biD96qPc-44" value="denyMinter" style="rounded=1;whiteSpace=wrap;html=1;fillColor=#ffe6cc;strokeColor=#d79b00;" vertex="1" parent="1">
          <mxGeometry x="-341" y="612" width="117" height="21" as="geometry" />
        </mxCell>
        <mxCell id="LSiRQm851fG1biD96qPc-45" value="18" style="ellipse;whiteSpace=wrap;html=1;aspect=fixed;fillColor=#fff2cc;strokeColor=#d6b656;" vertex="1" parent="1">
          <mxGeometry x="-383" y="608" width="29" height="29" as="geometry" />
        </mxCell>
        <mxCell id="LSiRQm851fG1biD96qPc-46" value="registerPosition" style="rounded=1;whiteSpace=wrap;html=1;fillColor=#ffe6cc;strokeColor=#d79b00;" vertex="1" parent="1">
          <mxGeometry x="-341" y="648" width="117" height="21" as="geometry" />
        </mxCell>
        <mxCell id="LSiRQm851fG1biD96qPc-47" value="19" style="ellipse;whiteSpace=wrap;html=1;aspect=fixed;fillColor=#fff2cc;strokeColor=#d6b656;" vertex="1" parent="1">
          <mxGeometry x="-383" y="644" width="29" height="29" as="geometry" />
        </mxCell>
        <mxCell id="LSiRQm851fG1biD96qPc-48" value="redeem" style="rounded=1;whiteSpace=wrap;html=1;fillColor=#ffe6cc;strokeColor=#d79b00;" vertex="1" parent="1">
          <mxGeometry x="-341" y="757" width="117" height="21" as="geometry" />
        </mxCell>
        <mxCell id="LSiRQm851fG1biD96qPc-49" value="20" style="ellipse;whiteSpace=wrap;html=1;aspect=fixed;fillColor=#fff2cc;strokeColor=#d6b656;" vertex="1" parent="1">
          <mxGeometry x="-383" y="753" width="29" height="29" as="geometry" />
        </mxCell>
        <mxCell id="LSiRQm851fG1biD96qPc-50" value="delegateVoteTo" style="rounded=1;whiteSpace=wrap;html=1;fillColor=#ffe6cc;strokeColor=#d79b00;" vertex="1" parent="1">
          <mxGeometry x="-341" y="794" width="117" height="21" as="geometry" />
        </mxCell>
        <mxCell id="LSiRQm851fG1biD96qPc-51" value="21" style="ellipse;whiteSpace=wrap;html=1;aspect=fixed;fillColor=#fff2cc;strokeColor=#d6b656;" vertex="1" parent="1">
          <mxGeometry x="-383" y="790" width="29" height="29" as="geometry" />
        </mxCell>
        <mxCell id="LSiRQm851fG1biD96qPc-52" value="onTokenTransfer" style="rounded=1;whiteSpace=wrap;html=1;fillColor=#ffe6cc;strokeColor=#d79b00;" vertex="1" parent="1">
          <mxGeometry x="-341" y="832" width="117" height="21" as="geometry" />
        </mxCell>
        <mxCell id="LSiRQm851fG1biD96qPc-53" value="22" style="ellipse;whiteSpace=wrap;html=1;aspect=fixed;fillColor=#fff2cc;strokeColor=#d6b656;" vertex="1" parent="1">
          <mxGeometry x="-383" y="828" width="29" height="29" as="geometry" />
        </mxCell>
        <mxCell id="LSiRQm851fG1biD96qPc-54" value="restructureCapTable" style="rounded=1;whiteSpace=wrap;html=1;fillColor=#ffe6cc;strokeColor=#d79b00;" vertex="1" parent="1">
          <mxGeometry x="-341" y="866" width="117" height="21" as="geometry" />
        </mxCell>
        <mxCell id="LSiRQm851fG1biD96qPc-55" value="23" style="ellipse;whiteSpace=wrap;html=1;aspect=fixed;fillColor=#fff2cc;strokeColor=#d6b656;" vertex="1" parent="1">
          <mxGeometry x="-383" y="862" width="29" height="29" as="geometry" />
        </mxCell>
        <mxCell id="LSiRQm851fG1biD96qPc-56" value="mint" style="rounded=1;whiteSpace=wrap;html=1;fillColor=#ffe6cc;strokeColor=#d79b00;" vertex="1" parent="1">
          <mxGeometry x="-341" y="915" width="117" height="21" as="geometry" />
        </mxCell>
        <mxCell id="LSiRQm851fG1biD96qPc-57" value="24" style="ellipse;whiteSpace=wrap;html=1;aspect=fixed;fillColor=#fff2cc;strokeColor=#d6b656;" vertex="1" parent="1">
          <mxGeometry x="-383" y="911" width="29" height="29" as="geometry" />
        </mxCell>
        <mxCell id="LSiRQm851fG1biD96qPc-58" value="burn" style="rounded=1;whiteSpace=wrap;html=1;fillColor=#ffe6cc;strokeColor=#d79b00;" vertex="1" parent="1">
          <mxGeometry x="-341" y="949" width="117" height="21" as="geometry" />
        </mxCell>
        <mxCell id="LSiRQm851fG1biD96qPc-59" value="25" style="ellipse;whiteSpace=wrap;html=1;aspect=fixed;fillColor=#fff2cc;strokeColor=#d6b656;" vertex="1" parent="1">
          <mxGeometry x="-383" y="945" width="29" height="29" as="geometry" />
        </mxCell>
        <mxCell id="LSiRQm851fG1biD96qPc-64" value="onTokenTransfer" style="rounded=1;whiteSpace=wrap;html=1;fillColor=#ffe6cc;strokeColor=#d79b00;" vertex="1" parent="1">
          <mxGeometry x="-341" y="987" width="117" height="21" as="geometry" />
        </mxCell>
        <mxCell id="LSiRQm851fG1biD96qPc-65" value="26" style="ellipse;whiteSpace=wrap;html=1;aspect=fixed;fillColor=#fff2cc;strokeColor=#d6b656;" vertex="1" parent="1">
          <mxGeometry x="-383" y="983" width="29" height="29" as="geometry" />
        </mxCell>
        <mxCell id="LSiRQm851fG1biD96qPc-66" value="TransferAndCall" style="rounded=1;whiteSpace=wrap;html=1;fillColor=#ffe6cc;strokeColor=#d79b00;" vertex="1" parent="1">
          <mxGeometry x="-344" y="1036" width="117" height="21" as="geometry" />
        </mxCell>
        <mxCell id="LSiRQm851fG1biD96qPc-67" value="27" style="ellipse;whiteSpace=wrap;html=1;aspect=fixed;fillColor=#fff2cc;strokeColor=#d6b656;" vertex="1" parent="1">
          <mxGeometry x="-386" y="1032" width="29" height="29" as="geometry" />
        </mxCell>
        <mxCell id="LSiRQm851fG1biD96qPc-68" value="permit" style="rounded=1;whiteSpace=wrap;html=1;fillColor=#ffe6cc;strokeColor=#d79b00;" vertex="1" parent="1">
          <mxGeometry x="-344" y="1084" width="117" height="21" as="geometry" />
        </mxCell>
        <mxCell id="LSiRQm851fG1biD96qPc-69" value="28" style="ellipse;whiteSpace=wrap;html=1;aspect=fixed;fillColor=#fff2cc;strokeColor=#d6b656;" vertex="1" parent="1">
          <mxGeometry x="-386" y="1080" width="29" height="29" as="geometry" />
        </mxCell>
        <mxCell id="LSiRQm851fG1biD96qPc-70" value="" style="rounded=1;whiteSpace=wrap;html=1;fillColor=#ffe6cc;strokeColor=#d79b00;" vertex="1" parent="1">
          <mxGeometry x="-341" y="1137" width="117" height="21" as="geometry" />
        </mxCell>
        <mxCell id="LSiRQm851fG1biD96qPc-71" value="" style="ellipse;whiteSpace=wrap;html=1;aspect=fixed;fillColor=#fff2cc;strokeColor=#d6b656;" vertex="1" parent="1">
          <mxGeometry x="-383" y="1133" width="29" height="29" as="geometry" />
        </mxCell>
        <mxCell id="LSiRQm851fG1biD96qPc-72" value="" style="rounded=1;whiteSpace=wrap;html=1;fillColor=#ffe6cc;strokeColor=#d79b00;" vertex="1" parent="1">
          <mxGeometry x="-341" y="1171" width="117" height="21" as="geometry" />
        </mxCell>
        <mxCell id="LSiRQm851fG1biD96qPc-73" value="" style="ellipse;whiteSpace=wrap;html=1;aspect=fixed;fillColor=#fff2cc;strokeColor=#d6b656;" vertex="1" parent="1">
          <mxGeometry x="-383" y="1167" width="29" height="29" as="geometry" />
        </mxCell>
        <mxCell id="LSiRQm851fG1biD96qPc-74" value="burn" style="rounded=1;whiteSpace=wrap;html=1;fillColor=#ffe6cc;strokeColor=#d79b00;" vertex="1" parent="1">
          <mxGeometry x="-341" y="685" width="117" height="21" as="geometry" />
        </mxCell>
        <mxCell id="LSiRQm851fG1biD96qPc-75" value="19" style="ellipse;whiteSpace=wrap;html=1;aspect=fixed;fillColor=#fff2cc;strokeColor=#d6b656;" vertex="1" parent="1">
          <mxGeometry x="-383" y="681" width="29" height="29" as="geometry" />
        </mxCell>
      </root>
    </mxGraphModel>
  </diagram>
</mxfile>
